<?xml version="1.0" encoding="UTF-8"?>
<svg width="538px" height="96px" viewBox="0 0 538 96" version="1.1" xmlns="http://www.w3.org/2000/svg" xmlns:xlink="http://www.w3.org/1999/xlink">
    <!-- Generator: Sketch 52.6 (67491) - http://www.bohemiancoding.com/sketch -->
    <title>logo-light</title>
    <desc>Created with Sketch.</desc>
    <g id="logo-light" stroke="none" stroke-width="1" fill="none" fill-rule="evenodd">
        <path d="M133.6805,15.02075 C132.11025,9.10825 127.48375,4.45175 121.6095,2.8715 C110.962,0 68.26675,0 68.26675,0 C68.26675,0 25.57175,0 14.924,2.8715 C9.04975,4.452 4.42325,9.10825 2.853,15.02075 C0,25.7375 0,48.097 0,48.097 C0,48.097 0,70.4565 2.853,81.17325 C4.42325,87.08575 9.04975,91.54825 14.924,93.1285 C25.57175,96 68.26675,96 68.26675,96 C68.26675,96 110.96175,96 121.6095,93.1285 C127.48375,91.54825 132.11025,87.08575 133.6805,81.17325 C136.5335,70.4565 136.5335,48.097 136.5335,48.097 C136.5335,48.097 136.5335,25.7375 133.6805,15.02075 Z M54.303,68.39775 L54.303,27.79625 L89.98775,48.0975 L54.303,68.39775 Z" id="Shape" fill="#FF0000" fill-rule="nonzero"></path>
        <path d="M150.8,14.456 L176.336,14.456 C182.096029,14.456 186.575984,15.9119854 189.776,18.824 C192.976016,21.7360146 194.576,26.1679702 194.576,32.12 C194.576,36.728023 193.648009,40.4879854 191.792,43.4 C189.935991,46.3120146 187.05602,48.1839958 183.152,49.016 L183.152,49.208 C186.608017,49.7200026 189.135992,50.8399914 190.736,52.568 C192.336008,54.2960086 193.327998,57.0799808 193.712,60.92 C193.840001,62.2000064 193.936,63.5919925 194,65.096 C194.064,66.6000075 194.128,68.2799907 194.192,70.136 C194.320001,73.7840182 194.511999,76.5679904 194.768,78.488 C195.152002,80.4080096 195.983994,81.7199965 197.264,82.424 L197.264,83 L182.288,83 C181.583996,82.0399952 181.136001,80.9360062 180.944,79.688 C180.751999,78.4399938 180.624,77.1440067 180.56,75.8 L180.176,62.648 C180.047999,59.9599866 179.376006,57.8480077 178.16,56.312 C176.943994,54.7759923 174.896014,54.008 172.016,54.008 L164.624,54.008 L164.624,83 L150.8,83 L150.8,14.456 Z M164.624,44.408 L170.384,44.408 C173.712017,44.408 176.271991,43.6240078 178.064,42.056 C179.856009,40.4879922 180.752,37.8480186 180.752,34.136 C180.752,27.7999683 177.552032,24.632 171.152,24.632 L164.624,24.632 L164.624,44.408 Z M228.406,51.32 C228.342,49.3359901 228.214001,47.5920075 228.022,46.088 C227.829999,44.5839925 227.494002,43.3040053 227.014,42.248 C226.533998,41.1919947 225.862004,40.3920027 224.998,39.848 C224.133996,39.3039973 223.030007,39.032 221.686,39.032 C220.341993,39.032 219.238004,39.335997 218.374,39.944 C217.509996,40.552003 216.822003,41.351995 216.31,42.344 C215.797997,43.336005 215.430001,44.4399939 215.206,45.656 C214.981999,46.8720061 214.87,48.0879939 214.87,49.304 L214.87,51.32 L228.406,51.32 Z M214.87,59.192 L214.87,63.32 C214.87,64.8560077 214.981999,66.3439928 215.206,67.784 C215.430001,69.2240072 215.797997,70.5039944 216.31,71.624 C216.822003,72.7440056 217.493996,73.6399966 218.326,74.312 C219.158004,74.9840034 220.181994,75.32 221.398,75.32 C223.638011,75.32 225.269995,74.520008 226.294,72.92 C227.318005,71.319992 228.021998,68.8880163 228.406,65.624 L240.31,65.624 C240.053999,71.6400301 238.454015,76.2159843 235.51,79.352 C232.565985,82.4880157 227.926032,84.056 221.59,84.056 C216.789976,84.056 213.046013,83.256008 210.358,81.656 C207.669987,80.055992 205.686006,77.9440131 204.406,75.32 C203.125994,72.6959869 202.342001,69.7520163 202.054,66.488 C201.765999,63.2239837 201.622,59.9600163 201.622,56.696 C201.622,53.2399827 201.861998,49.912016 202.342,46.712 C202.822002,43.511984 203.781993,40.6640125 205.222,38.168 C206.662007,35.6719875 208.725987,33.6880074 211.414,32.216 C214.102013,30.7439926 217.685978,30.008 222.166,30.008 C226.006019,30.008 229.157988,30.6319938 231.622,31.88 C234.086012,33.1280062 236.021993,34.8879886 237.43,37.16 C238.838007,39.4320114 239.797997,42.1839838 240.31,45.416 C240.822003,48.6480162 241.078,52.2479802 241.078,56.216 L241.078,59.192 L214.87,59.192 Z M271.836,57.176 C270.939996,57.8800035 269.980005,58.4399979 268.956,58.856 C267.931995,59.2720021 267.004004,59.575999 266.172,59.768 C263.483987,60.3440029 261.564006,61.3039933 260.412,62.648 C259.259994,63.9920067 258.684,65.8159885 258.684,68.12 C258.684,70.1040099 259.067996,71.799993 259.836,73.208 C260.604004,74.616007 261.883991,75.32 263.676,75.32 C264.572004,75.32 265.499995,75.1760014 266.46,74.888 C267.420005,74.5999986 268.299996,74.1360032 269.1,73.496 C269.900004,72.8559968 270.555997,72.0240051 271.068,71 C271.580003,69.9759949 271.836,68.760007 271.836,67.352 L271.836,57.176 Z M247.644,47.192 L247.644,45.944 C247.644,42.935985 248.123995,40.4240101 249.084,38.408 C250.044005,36.3919899 251.339992,34.7600062 252.972,33.512 C254.604008,32.2639938 256.523989,31.3680027 258.732,30.824 C260.940011,30.2799973 263.291988,30.008 265.788,30.008 C269.75602,30.008 272.955988,30.3919962 275.388,31.16 C277.820012,31.9280038 279.707993,33.015993 281.052,34.424 C282.396007,35.832007 283.307998,37.5119902 283.788,39.464 C284.268002,41.4160098 284.508,43.5439885 284.508,45.848 L284.508,73.016 C284.508,75.4480122 284.619999,77.3359933 284.844,78.68 C285.068001,80.0240067 285.499997,81.4639923 286.14,83 L273.468,83 C273.019998,82.1679958 272.684001,81.2880046 272.46,80.36 C272.235999,79.4319954 272.028001,78.5200045 271.836,77.624 L271.644,77.624 C270.107992,80.3120134 268.33201,82.055996 266.316,82.856 C264.29999,83.656004 261.692016,84.056 258.492,84.056 C256.187988,84.056 254.236008,83.656004 252.636,82.856 C251.035992,82.055996 249.756005,80.952007 248.796,79.544 C247.835995,78.135993 247.132002,76.5520088 246.684,74.792 C246.235998,73.0319912 246.012,71.2880086 246.012,69.56 C246.012,67.1279878 246.267997,65.0320088 246.78,63.272 C247.292003,61.5119912 248.075995,60.0080062 249.132,58.76 C250.188005,57.5119938 251.531992,56.4720042 253.164,55.64 C254.796008,54.8079958 256.763988,54.0720032 259.068,53.432 L266.556,51.416 C268.54001,50.9039974 269.915996,50.2000045 270.684,49.304 C271.452004,48.4079955 271.836,47.0960086 271.836,45.368 C271.836,43.3839901 271.372005,41.8320056 270.444,40.712 C269.515995,39.5919944 267.932011,39.032 265.692,39.032 C263.64399,39.032 262.108005,39.6399939 261.084,40.856 C260.059995,42.0720061 259.548,43.7039898 259.548,45.752 L259.548,47.192 L247.644,47.192 Z M318.53,49.976 C318.53,48.6959936 318.450001,47.4480061 318.29,46.232 C318.129999,45.0159939 317.842002,43.912005 317.426,42.92 C317.009998,41.927995 316.418004,41.128003 315.65,40.52 C314.881996,39.911997 313.858006,39.608 312.578,39.608 C310.977992,39.608 309.666005,39.9759963 308.642,40.712 C307.617995,41.4480037 306.850003,42.5359928 306.338,43.976 C305.825997,45.4160072 305.474001,47.239989 305.282,49.448 C305.089999,51.656011 304.994,54.263985 304.994,57.272 C304.994,60.472016 305.089999,63.2079886 305.282,65.48 C305.474001,67.7520114 305.825997,69.6239926 306.338,71.096 C306.850003,72.5680074 307.569995,73.6399966 308.498,74.312 C309.426005,74.9840034 310.625993,75.32 312.098,75.32 C314.338011,75.32 315.969995,74.3600096 316.994,72.44 C318.018005,70.5199904 318.53,67.4480211 318.53,63.224 L331.202,63.224 C331.202,70.0080339 329.682015,75.1759822 326.642,78.728 C323.601985,82.2800178 318.562035,84.056 311.522,84.056 C308.193983,84.056 305.298012,83.656004 302.834,82.856 C300.369988,82.055996 298.322008,80.6160104 296.69,78.536 C295.057992,76.4559896 293.826004,73.6720174 292.994,70.184 C292.161996,66.6959826 291.746,62.3600259 291.746,57.176 C291.746,51.8639734 292.257995,47.4640174 293.282,43.976 C294.306005,40.4879826 295.745991,37.7040104 297.602,35.624 C299.458009,33.5439896 301.665987,32.0880042 304.226,31.256 C306.786013,30.4239958 309.601985,30.008 312.674,30.008 C318.818031,30.008 323.441984,31.7999821 326.546,35.384 C329.650016,38.9680179 331.202,43.8319693 331.202,49.976 L318.53,49.976 Z M340.744,16.568 L353.992,16.568 L353.992,31.352 L361.672,31.352 L361.672,40.376 L353.992,40.376 L353.992,68.312 C353.992,70.3600102 354.295997,71.8159957 354.904,72.68 C355.512003,73.5440043 356.77599,73.976 358.696,73.976 C359.208003,73.976 359.719997,73.9600002 360.232,73.928 C360.744003,73.8959998 361.223998,73.8480003 361.672,73.784 L361.672,83 C360.199993,83 358.776007,83.0479995 357.4,83.144 C356.023993,83.2400005 354.568008,83.288 353.032,83.288 C350.471987,83.288 348.376008,83.1120018 346.744,82.76 C345.111992,82.4079982 343.864004,81.7040053 343,80.648 C342.135996,79.5919947 341.544002,78.2000086 341.224,76.472 C340.903998,74.7439914 340.744,72.5680131 340.744,69.944 L340.744,40.376 L334.024,40.376 L334.024,31.352 L340.744,31.352 L340.744,16.568 Z M406.542,14.456 L406.542,25.784 L391.566,25.784 L391.566,83 L377.742,83 L377.742,25.784 L362.766,25.784 L362.766,14.456 L406.542,14.456 Z M431.252,76.952 L431.06,76.952 C429.651993,79.5120128 427.828011,81.3359946 425.588,82.424 C423.347989,83.5120054 420.788014,84.056 417.908,84.056 C413.683979,84.056 410.436011,82.952011 408.164,80.744 C405.891989,78.535989 404.756,74.8400259 404.756,69.656 L404.756,31.352 L418.004,31.352 L418.004,66.968 C418.004,69.6560134 418.451996,71.5279947 419.348,72.584 C420.244004,73.6400053 421.68399,74.168 423.668,74.168 C428.340023,74.168 430.676,71.3200285 430.676,65.624 L430.676,31.352 L443.924,31.352 L443.924,83 L431.252,83 L431.252,76.952 Z M452.506,14.456 L465.754,14.456 L465.754,36.152 L465.946,36.152 C467.354007,34.1039898 468.937991,32.5680051 470.698,31.544 C472.458009,30.5199949 474.585988,30.008 477.082,30.008 C482.522027,30.008 486.521987,32.1359787 489.082,36.392 C491.642013,40.6480213 492.922,47.575952 492.922,57.176 C492.922,66.776048 491.642013,73.6559792 489.082,77.816 C486.521987,81.9760208 482.522027,84.056 477.082,84.056 C474.393987,84.056 472.138009,83.5760048 470.314,82.616 C468.489991,81.6559952 466.842007,79.9600122 465.37,77.528 L465.178,77.528 L465.178,83 L452.506,83 L452.506,14.456 Z M465.754,57.176 C465.754,62.8080282 466.185996,67.0479858 467.05,69.896 C467.914004,72.7440142 469.817985,74.168 472.762,74.168 C475.642014,74.168 477.513996,72.7440142 478.378,69.896 C479.242004,67.0479858 479.674,62.8080282 479.674,57.176 C479.674,51.5439718 479.242004,47.3040142 478.378,44.456 C477.513996,41.6079858 475.642014,40.184 472.762,40.184 C469.817985,40.184 467.914004,41.6079858 467.05,44.456 C466.185996,47.3040142 465.754,51.5439718 465.754,57.176 Z M525.12,51.32 C525.056,49.3359901 524.928001,47.5920075 524.736,46.088 C524.543999,44.5839925 524.208002,43.3040053 523.728,42.248 C523.247998,41.1919947 522.576004,40.3920027 521.712,39.848 C520.847996,39.3039973 519.744007,39.032 518.4,39.032 C517.055993,39.032 515.952004,39.335997 515.088,39.944 C514.223996,40.552003 513.536003,41.351995 513.024,42.344 C512.511997,43.336005 512.144001,44.4399939 511.92,45.656 C511.695999,46.8720061 511.584,48.0879939 511.584,49.304 L511.584,51.32 L525.12,51.32 Z M511.584,59.192 L511.584,63.32 C511.584,64.8560077 511.695999,66.3439928 511.92,67.784 C512.144001,69.2240072 512.511997,70.5039944 513.024,71.624 C513.536003,72.7440056 514.207996,73.6399966 515.04,74.312 C515.872004,74.9840034 516.895994,75.32 518.112,75.32 C520.352011,75.32 521.983995,74.520008 523.008,72.92 C524.032005,71.319992 524.735998,68.8880163 525.12,65.624 L537.024,65.624 C536.767999,71.6400301 535.168015,76.2159843 532.224,79.352 C529.279985,82.4880157 524.640032,84.056 518.304,84.056 C513.503976,84.056 509.760013,83.256008 507.072,81.656 C504.383987,80.055992 502.400006,77.9440131 501.12,75.32 C499.839994,72.6959869 499.056001,69.7520163 498.768,66.488 C498.479999,63.2239837 498.336,59.9600163 498.336,56.696 C498.336,53.2399827 498.575998,49.912016 499.056,46.712 C499.536002,43.511984 500.495993,40.6640125 501.936,38.168 C503.376007,35.6719875 505.439987,33.6880074 508.128,32.216 C510.816013,30.7439926 514.399978,30.008 518.88,30.008 C522.720019,30.008 525.871988,30.6319938 528.336,31.88 C530.800012,33.1280062 532.735993,34.8879886 534.144,37.16 C535.552007,39.4320114 536.511997,42.1839838 537.024,45.416 C537.536003,48.6480162 537.792,52.2479802 537.792,56.216 L537.792,59.192 L511.584,59.192 Z" id="ReactTube" fill="#212121"></path>
    </g>
</svg>